<svg width="117" height="17" xmlns="http://www.w3.org/2000/svg" viewBox="0 0 116.801 16.557" overflow="visible"><path d="M 14.865 16.241 L 14.865 0 L 18.565 0 L 18.565 16.241 Z M 86.777 10.173 C 86.777 6.248 83.732 3.813 80.168 3.813 C 76.581 3.813 73.558 6.271 73.558 10.173 C 73.558 14.098 76.604 16.557 80.168 16.557 C 83.732 16.557 86.778 14.076 86.778 10.173 Z M 83.123 10.173 C 83.123 12.226 81.747 13.376 80.145 13.376 C 78.544 13.376 77.168 12.226 77.168 10.173 C 77.168 8.098 78.544 6.993 80.145 6.993 C 81.747 6.993 83.123 8.098 83.123 10.173 Z M 13.376 11.572 C 13.376 9.745 12.429 8.346 10.737 7.715 C 12.339 6.835 12.903 5.685 12.903 4.331 C 12.903 1.962 11.188 0 7.353 0.023 L 0 0.023 L 0 16.263 L 7.67 16.263 C 11.527 16.241 13.376 14.323 13.376 11.572 Z M 8.978 4.805 C 8.978 5.91 8.278 6.542 6.925 6.542 L 3.857 6.542 L 3.857 3.158 L 6.925 3.158 C 8.165 3.158 8.978 3.699 8.978 4.805 Z M 9.316 11.324 C 9.316 12.384 8.572 13.084 7.196 13.084 L 3.857 13.084 L 3.857 9.564 L 7.196 9.564 C 8.526 9.564 9.316 10.241 9.316 11.324 Z M 45.588 7.128 C 44.573 5.008 42.678 3.835 39.813 3.835 C 36.43 3.835 33.407 5.955 33.407 10.173 C 33.407 14.279 36.069 16.557 39.768 16.557 C 42.362 16.557 44.55 15.519 45.588 13.287 L 42.61 11.752 C 42.069 12.745 41.234 13.376 39.904 13.376 C 38.189 13.376 37.084 12.158 37.084 10.173 C 37.084 8.188 38.347 6.993 39.881 6.993 C 41.077 6.993 41.979 7.534 42.543 8.707 Z M 100.109 7.128 C 99.093 5.008 97.199 3.835 94.334 3.835 C 90.95 3.835 87.928 5.955 87.928 10.173 C 87.928 14.279 90.589 16.557 94.288 16.557 C 96.883 16.557 99.071 15.519 100.109 13.287 L 97.131 11.752 C 96.59 12.745 95.755 13.376 94.424 13.376 C 92.71 13.376 91.604 12.158 91.604 10.173 C 91.604 8.188 92.868 6.993 94.402 6.993 C 95.597 6.993 96.499 7.534 97.063 8.707 Z M 69.093 16.241 L 66.003 10.782 L 63.633 10.782 L 63.633 16.242 L 59.821 16.242 L 59.821 0 L 66.701 0 C 70.423 0 73.017 1.782 73.017 5.278 C 73.017 7.512 71.912 9.091 69.95 10.06 L 73.514 16.241 Z M 63.656 7.557 L 66.498 7.557 C 68.258 7.557 69.115 6.564 69.115 5.391 C 69.115 3.993 68.303 3.226 66.498 3.226 L 63.656 3.226 L 63.656 7.556 Z M 32.798 16.038 L 32.798 13.49 C 32.64 13.535 32.415 13.58 32.166 13.58 C 31.693 13.58 31.445 13.332 31.445 12.904 L 31.445 8.684 C 31.445 5.527 29.325 3.857 25.828 3.857 C 23.55 3.857 21.61 4.692 20.392 5.775 L 22.444 8.075 C 23.256 7.354 24.339 6.902 25.399 6.902 C 27.023 6.902 27.79 7.715 27.79 9.045 L 27.79 9.429 C 26.838 9.195 25.861 9.073 24.88 9.068 C 21.926 9.068 20.008 10.489 20.008 12.835 C 20.008 15.249 21.61 16.512 24.091 16.512 C 25.783 16.512 27.294 15.812 28.084 14.91 C 28.557 16.106 29.594 16.422 30.61 16.422 C 31.31 16.444 32.121 16.332 32.798 16.038 Z M 27.813 12.226 C 27.813 13.331 26.753 14.053 25.535 14.053 C 24.385 14.053 23.82 13.467 23.82 12.654 C 23.82 11.797 24.452 11.166 25.738 11.166 C 26.528 11.166 27.226 11.301 27.813 11.436 Z M 113.327 16.241 L 108.973 8.684 L 113.056 4.241 L 108.951 4.241 L 104.642 9.023 L 104.642 0.023 L 100.966 0.023 L 100.966 16.263 L 104.642 16.263 L 104.642 13.331 L 106.402 11.459 L 109.154 16.264 L 113.327 16.264 Z M 58.852 16.241 L 54.498 8.684 L 58.581 4.241 L 54.431 4.241 L 50.167 9.023 L 50.167 0.023 L 46.49 0.023 L 46.49 16.263 L 50.167 16.263 L 50.167 13.331 L 51.927 11.459 L 54.679 16.264 L 58.851 16.264 L 58.851 16.241 Z M 115.583 13.985 C 116.35 13.985 116.801 14.459 116.801 15.181 C 116.801 15.903 116.35 16.377 115.583 16.377 C 114.816 16.377 114.365 15.903 114.365 15.181 C 114.365 14.459 114.816 13.985 115.583 13.985 Z M 115.583 16.219 C 116.192 16.219 116.598 15.858 116.598 15.181 C 116.598 14.504 116.169 14.143 115.583 14.143 C 114.974 14.143 114.568 14.504 114.568 15.181 C 114.545 15.881 114.974 16.219 115.583 16.219 Z M 115.109 14.572 L 115.605 14.572 C 115.898 14.572 116.056 14.73 116.056 14.955 C 116.056 15.158 115.966 15.271 115.808 15.339 L 116.034 15.767 L 115.808 15.767 L 115.605 15.384 L 115.335 15.384 L 115.335 15.767 L 115.109 15.767 Z M 115.335 14.752 L 115.335 15.181 L 115.583 15.181 C 115.741 15.181 115.831 15.136 115.831 14.978 C 115.831 14.843 115.763 14.775 115.605 14.775 L 115.335 14.775 Z" fill="white"></path></svg>
