<svg xmlns="http://www.w3.org/2000/svg" viewBox="-3 -3 26 26" width="24" height="24" fill="none">
  <path d="M 4 4 L 6 2 M 6 2 L 4 0 M 6 2 L 4 2 C 1.791 2 0 3.791 0 6 M 16 16 L 14 18 M 14 18 L 16 20 M 14 18 L 16 18 C 18.209 18 20 16.209 20 14 M 11.417 11.417 C 14.054 12.674 17.213 11.849 18.899 9.463 C 20.585 7.077 20.307 3.824 18.242 1.758 C 16.176 -0.307 12.923 -0.585 10.537 1.101 C 8.151 2.787 7.326 5.946 8.583 8.583 M 12 14 C 12 17.314 9.314 20 6 20 C 2.686 20 0 17.314 0 14 C 0 10.686 2.686 8 6 8 C 9.314 8 12 10.686 12 14 Z" stroke="#F5F0EB" stroke-width="1.5" stroke-linecap="round" stroke-linejoin="round"/>
</svg>
