<svg xmlns="http://www.w3.org/2000/svg" viewBox="0 0 18.144 16" width="24" height="24" fill="none">
  <path d="M 0 16 L 13.6 16 C 14.441 16 15.192 15.473 15.479 14.683 L 18.024 7.683 C 18.247 7.07 18.157 6.387 17.782 5.852 C 17.408 5.318 16.796 5 16.144 5 L 15 5 M 0 16 L 0 2 C 0 0.895 0.895 0 2 0 L 5.172 0 C 5.702 0 6.211 0.211 6.586 0.586 L 7.414 1.414 C 7.789 1.789 8.298 2 8.828 2 L 13 2 C 14.105 2 15 2.895 15 4 L 15 5 M 0 16 L 2.598 6.474 C 2.835 5.604 3.626 5 4.528 5 L 15 5" stroke="#F5F0EB" stroke-width="1.5" stroke-linecap="round" stroke-linejoin="round"/>
</svg>
