<svg xmlns="http://www.w3.org/2000/svg" viewBox="-3 -3 26 26" width="24" height="24" fill="none">
  <path d="M 9 2.5 L 16.3 2.5 C 17.42 2.5 17.98 2.5 18.408 2.718 C 18.784 2.91 19.09 3.216 19.282 3.592 C 19.5 4.02 19.5 4.58 19.5 5.7 L 19.5 7 C 19.5 7.932 19.5 8.398 19.348 8.765 C 19.145 9.255 18.755 9.645 18.265 9.848 C 17.898 10 17.432 10 16.5 10 M 11 17.5 L 3.7 17.5 C 2.58 17.5 2.02 17.5 1.592 17.282 C 1.216 17.09 0.91 16.784 0.718 16.408 C 0.5 15.98 0.5 15.42 0.5 14.3 L 0.5 13 C 0.5 12.068 0.5 11.602 0.652 11.235 C 0.855 10.745 1.245 10.355 1.735 10.152 C 2.102 10 2.568 10 3.5 10 M 8.3 12.5 L 11.7 12.5 C 11.98 12.5 12.12 12.5 12.227 12.445 C 12.321 12.397 12.397 12.321 12.445 12.227 C 12.5 12.12 12.5 11.98 12.5 11.7 L 12.5 8.3 C 12.5 8.02 12.5 7.88 12.445 7.773 C 12.397 7.679 12.321 7.603 12.227 7.555 C 12.12 7.5 11.98 7.5 11.7 7.5 L 8.3 7.5 C 8.02 7.5 7.88 7.5 7.773 7.555 C 7.679 7.603 7.603 7.679 7.555 7.773 C 7.5 7.88 7.5 8.02 7.5 8.3 L 7.5 11.7 C 7.5 11.98 7.5 12.12 7.555 12.227 C 7.603 12.321 7.679 12.397 7.773 12.445 C 7.88 12.5 8.02 12.5 8.3 12.5 Z M 15.8 20 L 19.2 20 C 19.48 20 19.62 20 19.727 19.945 C 19.821 19.897 19.897 19.821 19.945 19.727 C 20 19.62 20 19.48 20 19.2 L 20 15.8 C 20 15.52 20 15.38 19.945 15.273 C 19.897 15.179 19.821 15.103 19.727 15.055 C 19.62 15 19.48 15 19.2 15 L 15.8 15 C 15.52 15 15.38 15 15.273 15.055 C 15.179 15.103 15.103 15.179 15.055 15.273 C 15 15.38 15 15.52 15 15.8 L 15 19.2 C 15 19.48 15 19.62 15.055 19.727 C 15.103 19.821 15.179 19.897 15.273 19.945 C 15.38 20 15.52 20 15.8 20 Z M 0.8 5 L 4.2 5 C 4.48 5 4.62 5 4.727 4.946 C 4.821 4.898 4.897 4.821 4.945 4.727 C 5 4.62 5 4.48 5 4.2 L 5 0.8 C 5 0.52 5 0.38 4.946 0.273 C 4.898 0.179 4.821 0.102 4.727 0.054 C 4.62 0 4.48 0 4.2 0 L 0.8 0 C 0.52 0 0.38 0 0.273 0.054 C 0.179 0.102 0.102 0.179 0.054 0.273 C 0 0.38 0 0.52 0 0.8 L 0 4.2 C 0 4.48 0 4.62 0.054 4.727 C 0.102 4.821 0.179 4.897 0.273 4.945 C 0.38 5 0.52 5 0.8 5 Z" stroke="#F5F0EB" stroke-width="1.5" stroke-linecap="round" stroke-linejoin="round"/>
</svg>
