<svg width="166" height="23" xmlns="http://www.w3.org/2000/svg" viewBox="0 0 149.837 20.77" overflow="visible"><path d="M 40.084 15.27 C 40.461 15.418 41.018 15.513 41.757 15.557 L 41.757 15.866 L 33.42 15.866 L 33.42 15.557 C 34.157 15.513 34.716 15.417 35.092 15.27 C 35.468 15.124 35.729 14.888 35.871 14.563 C 36.013 14.239 36.085 13.76 36.085 13.127 L 36.085 3.277 L 36.018 3.277 L 30.302 16.153 L 30.234 16.153 L 24.11 3.322 L 24.043 3.322 L 24.043 13.127 C 24.043 13.76 24.118 14.239 24.269 14.562 C 24.419 14.886 24.679 15.122 25.049 15.27 C 25.417 15.418 25.971 15.513 26.709 15.557 L 26.709 15.866 L 20.348 15.866 L 20.348 15.557 C 21.085 15.513 21.64 15.417 22.008 15.27 C 22.377 15.124 22.638 14.888 22.788 14.563 C 22.938 14.239 23.014 13.76 23.014 13.127 L 23.014 3.254 C 23.014 2.622 22.939 2.143 22.787 1.819 C 22.636 1.495 22.377 1.259 22.008 1.112 C 21.638 0.965 21.085 0.869 20.348 0.825 L 20.348 0.515 L 26.054 0.515 L 31.265 11.636 L 36.319 0.516 L 41.757 0.516 L 41.757 0.825 C 41.017 0.869 40.461 0.965 40.085 1.112 C 39.708 1.26 39.445 1.498 39.293 1.829 C 39.142 2.16 39.067 2.635 39.067 3.254 L 39.067 13.127 C 39.067 13.76 39.142 14.239 39.293 14.562 C 39.445 14.888 39.708 15.122 40.084 15.27 Z M 51.412 7.827 C 51.878 8.667 52.112 9.615 52.112 10.675 C 52.112 11.735 51.878 12.685 51.412 13.525 C 50.962 14.348 50.283 15.022 49.458 15.468 C 48.622 15.925 47.669 16.153 46.599 16.153 C 45.529 16.153 44.581 15.925 43.753 15.468 C 42.931 15.018 42.253 14.344 41.799 13.524 C 41.324 12.684 41.087 11.736 41.087 10.676 C 41.087 9.616 41.324 8.666 41.799 7.826 C 42.254 7.007 42.931 6.333 43.752 5.883 C 44.582 5.426 45.529 5.198 46.599 5.198 C 47.669 5.198 48.622 5.426 49.459 5.883 C 50.284 6.329 50.962 7.004 51.412 7.827 Z M 49.152 10.675 C 49.152 9.63 49.051 8.732 48.847 7.981 C 48.643 7.229 48.349 6.66 47.966 6.269 C 47.612 5.892 47.116 5.679 46.599 5.683 C 46.072 5.683 45.617 5.877 45.233 6.269 C 44.849 6.659 44.556 7.229 44.352 7.981 C 44.148 8.732 44.046 9.63 44.046 10.675 C 44.046 11.721 44.148 12.619 44.352 13.37 C 44.556 14.122 44.849 14.691 45.232 15.083 C 45.617 15.473 46.072 15.668 46.599 15.668 C 47.127 15.668 47.582 15.474 47.966 15.083 C 48.349 14.693 48.643 14.122 48.846 13.37 C 49.051 12.619 49.153 11.721 49.153 10.676 Z M 59.773 7.562 C 60.164 7.562 60.519 7.628 60.835 7.761 L 60.835 5.33 C 60.614 5.237 60.375 5.192 60.135 5.198 C 59.442 5.198 58.829 5.498 58.295 6.093 C 57.759 6.689 57.343 7.375 56.956 8.74 L 56.906 8.74 L 56.906 5.287 L 56.816 5.287 L 52.341 6.547 L 52.341 6.834 C 52.854 6.834 53.249 6.882 53.528 6.977 C 53.807 7.073 54.006 7.227 54.128 7.442 C 54.248 7.655 54.308 7.945 54.308 8.315 L 54.308 13.792 C 54.308 14.249 54.264 14.587 54.174 14.809 C 54.08 15.034 53.901 15.212 53.676 15.305 C 53.435 15.415 53.051 15.5 52.524 15.559 L 52.524 15.868 L 58.805 15.868 L 58.805 15.558 C 58.278 15.515 57.882 15.437 57.618 15.328 C 57.374 15.236 57.176 15.053 57.065 14.818 C 56.961 14.59 56.907 14.248 56.907 13.792 L 56.907 9.452 C 57.38 8.362 58.423 7.562 59.773 7.562 Z M 92.745 14.795 C 92.655 14.567 92.61 14.225 92.61 13.769 L 92.61 8.732 C 92.61 6.367 91.27 5.198 89.514 5.198 C 87.758 5.198 86.63 6.413 86.147 7.06 L 86.103 7.06 L 86.103 5.287 L 86.013 5.287 L 81.538 6.547 L 81.538 6.834 C 82.036 6.834 82.427 6.882 82.713 6.977 C 82.999 7.073 83.203 7.223 83.323 7.43 C 83.443 7.636 83.504 7.924 83.504 8.291 L 83.504 13.767 C 83.504 14.224 83.459 14.567 83.369 14.794 C 83.278 15.023 83.099 15.206 82.872 15.302 C 82.631 15.412 82.247 15.497 81.72 15.556 L 81.72 15.865 L 87.595 15.865 L 87.595 15.555 C 87.189 15.497 86.875 15.412 86.657 15.302 C 86.446 15.201 86.287 15.017 86.217 14.794 C 86.141 14.565 86.104 14.224 86.104 13.767 L 86.104 7.863 C 86.624 7.247 87.235 6.655 88.229 6.655 C 89.594 6.655 90.013 7.661 90.013 8.798 L 90.013 13.768 C 90.013 14.224 89.971 14.567 89.889 14.794 C 89.815 15.012 89.661 15.193 89.459 15.302 C 89.255 15.412 88.943 15.497 88.521 15.556 L 88.521 15.865 L 94.329 15.865 L 94.329 15.555 C 93.831 15.497 93.466 15.412 93.233 15.302 C 93.009 15.205 92.834 15.022 92.745 14.795 Z M 149.837 12.818 C 149.338 13.883 147.946 16.153 145.114 16.153 C 142.425 16.153 140.189 14.003 140.189 10.765 C 140.189 9.748 140.415 8.814 140.866 7.96 C 141.291 7.136 141.927 6.439 142.708 5.939 C 143.473 5.449 144.364 5.191 145.273 5.199 C 147.987 5.199 149.34 7.069 149.34 9.016 L 149.34 9.456 L 142.608 9.456 L 142.606 9.573 C 142.606 11.916 143.673 14.167 146.357 14.167 C 148.397 14.167 149.251 13.063 149.587 12.666 Z M 142.654 8.71 L 146.876 8.71 C 146.848 7.11 146.36 5.712 145.024 5.706 C 143.772 5.702 142.864 6.844 142.654 8.71 Z M 119.868 14.795 C 119.778 14.567 119.733 14.225 119.733 13.769 L 119.733 8.732 C 119.733 7.966 119.602 7.319 119.338 6.788 C 119.074 6.258 118.709 5.861 118.243 5.596 C 117.775 5.331 117.24 5.199 116.638 5.199 C 115.944 5.199 115.331 5.372 114.796 5.718 C 114.261 6.063 113.753 6.561 113.271 7.208 L 113.226 7.208 L 113.226 0 L 113.136 0 L 108.662 1.26 L 108.662 1.547 C 109.159 1.547 109.55 1.595 109.837 1.69 C 110.123 1.785 110.327 1.936 110.447 2.143 C 110.566 2.349 110.628 2.636 110.628 3.003 L 110.628 13.767 C 110.628 14.224 110.583 14.567 110.493 14.794 C 110.402 15.023 110.223 15.206 109.996 15.302 C 109.754 15.412 109.371 15.497 108.843 15.556 L 108.843 15.865 L 114.718 15.865 L 114.718 15.555 C 114.312 15.497 113.999 15.412 113.78 15.302 C 113.569 15.201 113.41 15.017 113.34 14.794 C 113.265 14.565 113.228 14.224 113.228 13.767 L 113.228 7.863 C 113.747 7.247 114.359 6.655 115.352 6.655 C 115.91 6.655 116.346 6.835 116.663 7.195 C 116.979 7.555 117.138 8.09 117.138 8.796 L 117.138 13.767 C 117.138 14.224 117.096 14.567 117.014 14.794 C 116.94 15.012 116.786 15.193 116.584 15.302 C 116.38 15.412 116.068 15.497 115.646 15.556 L 115.646 15.865 L 121.454 15.865 L 121.454 15.555 C 120.956 15.497 120.591 15.412 120.358 15.302 C 120.134 15.205 119.957 15.022 119.868 14.795 Z M 103.457 14.913 C 100.124 14.934 97.481 12.316 97.481 8.067 C 97.481 3.577 99.943 0.957 102.758 0.957 C 105.574 0.957 106.782 3.437 107.397 5.873 L 107.848 5.866 L 107.848 1.384 C 106.791 0.811 105.055 0.166 102.534 0.166 C 97.67 0.166 93.999 3.644 93.999 8.288 C 93.999 12.713 97.062 16.212 102.331 16.19 C 105.237 16.168 107.262 14.473 108.23 13.174 L 107.916 12.844 C 107.262 13.571 105.956 14.891 103.457 14.913 Z M 137.004 9.726 L 135.445 8.997 C 134.41 8.544 133.818 7.945 133.818 7.209 C 133.818 6.374 134.6 5.803 135.694 5.803 C 137.287 5.803 138.112 6.663 138.454 8.578 L 138.925 8.578 L 138.925 5.795 C 138.457 5.618 137.222 5.199 135.965 5.199 C 133.48 5.199 131.966 6.727 131.966 8.49 C 131.966 9.168 132.15 9.76 132.519 10.268 C 132.888 10.776 133.442 11.214 134.179 11.582 L 135.806 12.377 C 136.92 12.874 137.366 13.363 137.366 14.1 C 137.366 14.914 136.695 15.551 135.423 15.551 C 133.563 15.551 132.679 13.827 132.437 12.443 L 131.966 12.443 L 131.966 15.292 C 132.675 15.74 134.008 16.153 135.243 16.153 C 137.626 16.153 139.287 14.727 139.287 12.708 C 139.286 11.254 138.492 10.344 137.004 9.726 Z M 13.49 9.174 L 13.49 13.127 C 13.49 13.745 13.58 14.22 13.761 14.552 C 13.942 14.883 14.243 15.124 14.665 15.27 C 15.085 15.418 15.727 15.513 16.585 15.557 L 16.585 15.866 L 7.841 15.866 L 7.841 15.557 C 8.578 15.513 9.133 15.417 9.501 15.27 C 9.87 15.124 10.131 14.888 10.281 14.563 C 10.431 14.239 10.507 13.76 10.507 13.127 L 10.507 3.322 C 10.507 1.302 9.573 0.892 8.156 0.892 C 6.6 0.892 5.649 1.301 5.649 3.256 L 5.649 14.227 C 5.649 16.707 4.001 19.065 0.746 19.065 C 0.494 19.065 0.246 19.05 0 19.022 L 0 18.757 C 0.773 18.712 1.4 18.455 1.876 17.982 C 2.403 17.459 2.667 16.602 2.667 15.409 L 2.667 3.254 C 2.667 2.636 2.592 2.16 2.441 1.829 C 2.29 1.499 2.026 1.259 1.65 1.112 C 1.274 0.965 0.724 0.869 0 0.825 L 0 0.515 L 15.44 0.515 C 18.953 0.515 21.127 2.232 21.127 4.823 C 21.127 7.789 18.147 9.174 15.483 9.174 Z M 13.49 8.581 L 14.567 8.581 C 16.4 8.581 17.942 7.532 17.942 4.845 C 17.942 1.56 15.722 1.109 14.622 1.109 L 13.49 1.109 L 13.49 8.58 Z M 80.627 14.984 C 81.001 14.984 81.329 14.824 81.537 14.687 L 81.537 15.211 C 81.12 15.592 80.347 16.146 79.184 16.146 C 78.204 16.146 77.382 15.538 77.164 14.611 L 77.104 14.611 C 76.723 15.317 75.555 16.209 74.282 16.209 C 72.754 16.209 71.628 15.213 71.628 13.699 C 71.628 12.515 72.457 11.727 73.835 11.249 L 77.105 10.099 L 77.105 8.614 C 77.105 7.264 76.107 6.642 75.025 6.642 C 73.921 6.642 72.902 7.099 71.841 8.157 L 71.523 7.867 C 72.457 6.393 73.943 5.19 76.087 5.19 C 78.125 5.19 79.76 6.497 79.739 8.614 L 79.697 13.905 C 79.694 14.651 80.013 14.983 80.627 14.983 Z M 77.105 10.79 L 75.789 11.311 C 74.77 11.705 74.112 12.162 74.112 13.22 C 74.112 14.111 74.749 14.734 75.641 14.734 C 76.108 14.734 76.787 14.381 77.106 13.987 L 77.106 10.79 Z M 130.51 14.984 C 130.884 14.984 131.211 14.824 131.421 14.687 L 131.421 15.211 C 131.004 15.592 130.231 16.147 129.067 16.147 C 128.087 16.147 127.264 15.539 127.046 14.612 L 126.987 14.612 C 126.605 15.318 125.438 16.21 124.164 16.21 C 122.636 16.21 121.511 15.214 121.511 13.7 C 121.511 12.517 122.339 11.729 123.718 11.251 L 126.987 10.1 L 126.987 8.615 C 126.987 7.265 125.989 6.643 124.907 6.643 C 123.803 6.643 122.784 7.1 121.723 8.158 L 121.404 7.868 C 122.338 6.394 123.824 5.191 125.968 5.191 C 128.006 5.191 129.641 6.498 129.62 8.615 L 129.578 13.906 C 129.576 14.652 129.894 14.984 130.51 14.984 Z M 126.986 10.79 L 125.67 11.311 C 124.651 11.705 123.993 12.162 123.993 13.22 C 123.993 14.111 124.63 14.734 125.522 14.734 C 125.989 14.734 126.668 14.381 126.987 13.987 L 126.987 10.79 Z M 68.945 5.924 C 69.911 6.661 70.338 7.721 70.338 8.627 C 70.338 11.004 68.26 12.235 65.894 12.235 C 65.293 12.239 64.694 12.152 64.118 11.979 C 63.813 12.209 63.551 12.509 63.551 12.861 C 63.551 13.616 64.811 13.769 65.563 13.811 L 68.128 13.984 C 70.184 14.114 71.488 14.826 71.488 16.62 C 71.488 18.889 68.742 20.77 64.745 20.77 C 62.424 20.77 60.765 19.992 60.765 18.608 C 60.765 17.405 61.442 16.717 63.183 15.9 C 62.045 15.576 61.781 14.913 61.781 14.264 C 61.781 13.376 62.591 12.58 63.69 11.824 C 62.374 11.282 61.45 10.208 61.45 8.624 C 61.45 6.247 63.528 5.014 65.894 5.014 C 66.982 5.014 67.848 5.256 68.514 5.636 C 69.012 4.659 69.994 3.522 71.753 3.522 L 71.753 5.551 C 70.813 5.267 69.667 5.415 68.945 5.924 Z M 62.622 17.66 C 62.622 18.914 64.081 19.475 65.982 19.475 C 67.795 19.475 70.248 18.675 70.248 17.399 C 70.248 16.664 69.828 16.491 68.723 16.405 L 64.28 16.083 C 64.043 16.067 63.807 16.037 63.573 15.995 C 62.933 16.483 62.621 16.984 62.621 17.66 Z M 67.596 8.628 C 67.596 6.597 66.911 5.624 65.894 5.624 C 64.876 5.624 64.192 6.597 64.192 8.628 C 64.192 10.659 64.876 11.632 65.894 11.632 C 66.911 11.632 67.596 10.659 67.596 8.628 Z" fill="white"></path></svg>
