<svg xmlns="http://www.w3.org/2000/svg" xmlns:xlink="http://www.w3.org/1999/xlink" viewBox="0 0 123.559 25.225" overflow="visible"><g><path d="M 0 0 L 123.559 0 L 123.559 22.525 L 0 22.525 Z" fill="transparent"></path><path d="M 69.299 7.916 L 69.299 10.729 L 65.88 10.729 L 65.88 18.049 C 65.88 19.353 66.496 19.609 67.646 19.609 C 68.313 19.609 68.816 19.476 69.052 19.405 L 69.309 19.323 L 69.309 22.136 L 69.165 22.176 C 68.2 22.423 67.399 22.495 66.219 22.495 C 65.397 22.495 62.718 22.228 62.718 18.717 L 62.718 10.729 L 60.706 10.729 L 60.706 7.916 L 62.718 7.916 L 62.718 4.313 L 65.88 3.203 L 65.88 7.916 Z M 90.54 3.316 L 86.752 22.197 L 83.54 22.197 L 80.192 9.056 L 76.794 22.197 L 73.63 22.197 L 69.68 3.317 L 72.975 3.317 L 75.542 16.119 L 78.735 3.317 L 81.815 3.317 C 82.123 4.518 85.008 15.965 85.049 16.109 C 85.069 15.955 87.318 3.738 87.399 3.317 L 90.541 3.317 Z M 93.816 13.573 C 93.898 12.228 94.842 10.473 96.854 10.473 C 99.041 10.473 99.698 12.403 99.77 13.573 Z M 96.998 7.66 C 94.585 7.66 90.52 9.23 90.52 15.123 C 90.52 22.136 96.105 22.495 97.224 22.495 C 99.596 22.495 100.653 22.002 101.69 21.509 L 101.803 21.458 L 101.803 18.47 L 101.505 18.655 C 100.746 19.127 99.288 19.661 97.645 19.661 C 94.329 19.661 93.857 17.29 93.815 16.294 L 102.943 16.294 L 102.963 16.13 C 103.251 14.158 102.963 11.397 101.351 9.528 C 100.273 8.286 98.805 7.66 96.998 7.66 Z M 114.647 18.224 C 114.647 20.37 112.778 22.526 109.236 22.526 C 107.676 22.526 105.961 22.146 104.729 21.54 L 104.616 21.479 L 104.616 18.419 L 104.904 18.573 C 105.93 19.127 107.573 19.713 109.144 19.713 C 110.581 19.713 111.402 19.199 111.402 18.306 C 111.402 17.464 110.899 17.207 109.657 16.653 L 109.164 16.448 C 108.495 16.162 107.831 15.865 107.172 15.555 C 106.341 15.175 104.4 14.302 104.4 11.695 C 104.4 10.288 105.478 7.66 109.513 7.66 C 111.176 7.66 112.829 8.111 113.476 8.42 L 113.589 8.48 L 113.589 11.489 L 113.302 11.356 C 112.008 10.719 110.879 10.421 109.626 10.421 C 109.164 10.421 107.634 10.514 107.634 11.581 C 107.634 12.393 108.6 12.813 109.37 13.163 L 109.524 13.224 C 110.088 13.47 110.53 13.676 110.899 13.83 L 111.31 14.004 C 113.733 15.072 114.647 16.201 114.647 18.224 Z M 43.222 3.317 L 46.312 3.317 L 46.312 22.197 L 43.304 22.197 L 35.07 9.056 L 35.07 22.197 L 31.99 22.197 L 31.99 3.317 L 35.07 3.317 L 43.232 16.561 Z M 120.129 10.729 L 120.129 18.049 C 120.129 19.363 120.745 19.609 121.895 19.609 C 122.542 19.609 123.045 19.476 123.301 19.415 L 123.558 19.333 L 123.558 22.146 L 123.394 22.186 C 122.449 22.433 121.648 22.506 120.457 22.506 C 119.636 22.506 116.977 22.238 116.977 18.727 L 116.977 10.729 L 114.955 10.729 L 114.955 10.534 C 114.943 9.867 114.943 9.199 114.955 8.532 L 114.955 7.916 L 116.977 7.916 L 116.977 4.313 L 120.129 3.203 L 120.129 7.916 L 123.548 7.916 L 123.548 10.729 Z M 56.65 18.029 C 56.291 18.481 55.151 19.661 53.386 19.661 C 52.03 19.661 51.158 18.881 51.158 17.669 C 51.158 16.438 52.143 15.719 53.878 15.719 L 56.65 15.719 Z M 54.217 7.609 C 52.615 7.609 51.055 7.885 49.957 8.368 L 49.833 8.409 L 49.833 11.314 L 50.121 11.171 C 50.86 10.811 52.636 10.483 53.755 10.483 C 56.527 10.483 56.65 11.54 56.661 12.916 L 53.693 12.916 C 49.761 12.916 47.975 15.38 47.975 17.659 C 47.975 20.842 50.501 22.495 53.015 22.495 C 54.73 22.495 55.809 21.848 56.671 21.088 L 56.671 22.198 L 59.802 22.198 L 59.802 12.536 C 59.802 8.091 55.891 7.608 54.217 7.608 Z M 11.119 22.484 L 12.977 19.26 L 14.835 22.484 L 22.248 22.484 L 25.954 16.057 L 22.248 9.64 L 18.54 9.64 L 20.389 6.427 L 16.683 0 L 9.271 0 L 5.565 6.417 L 7.423 9.64 L 3.706 9.64 L 0 16.057 L 3.706 22.484 Z" fill="rgb(255,255,255)"></path><g transform="translate(8.346 4.825)"><g><defs><linearGradient id="idsobJSA83z9_5g2066874024" x1="0" x2="1" y1="0.21010769306701155" y2="0.7898923069329884"><stop offset="0" stop-color="rgb(139,139,139)" stop-opacity="1"></stop><stop offset="1" stop-color="rgb(255,255,255)" stop-opacity="1"></stop></linearGradient></defs><path d="M 5.564 0 L 16.684 6.417 L 11.119 16.047 L 0 9.63 L 5.565 0 Z" fill="url(#idsobJSA83z9_5g2066874024)"></path></g></g><g transform="translate(2.401 0.945)"><g><defs><linearGradient id="idsobJSA83z9_7g-1584004282" x1="0.9135699665501369" x2="0.08643003344986316" y1="0" y2="1"><stop offset="0" stop-color="rgb(105,105,105)" stop-opacity="1"></stop><stop offset="1" stop-color="rgb(255,255,255)" stop-opacity="1"></stop></linearGradient></defs><path d="M 17.443 8.13 L 9.693 17.38 L 0 9.25 L 7.762 0 Z" fill="url(#idsobJSA83z9_7g-1584004282)"></path></g></g><g transform="translate(1.088 6.899)"><g><defs><linearGradient id="idsobJSA83z9_9g1062805512" x1="0" x2="1" y1="0.07993982282289785" y2="0.9200601771771022"><stop offset="0" stop-color="rgb(132,131,131)" stop-opacity="1"></stop><stop offset="1" stop-color="rgb(255,255,255)" stop-opacity="1"></stop></linearGradient></defs><path d="M 8.625 0 L 18.214 8.049 L 9.59 18.326 L 0 10.276 L 8.626 0.001 Z" fill="url(#idsobJSA83z9_9g1062805512)"></path></g></g><path d="M 22.248 22.484 L 14.835 22.484 L 11.129 16.057 L 18.541 16.057 L 22.248 9.64 L 25.954 16.067 Z M 7.413 16.057 L 11.119 9.64 L 3.706 9.64 L 0 16.057 L 3.706 22.484 L 11.119 22.484 Z M 16.683 0 L 20.39 6.427 L 16.683 12.844 L 12.977 6.417 L 5.565 6.417 L 9.27 0 L 16.682 0 Z" fill="rgb(255,255,255)"></path><path d="M 22.248 9.64 L 25.954 16.067 L 22.248 22.494 L 18.541 16.067 Z M 7.413 16.057 L 0 16.057 L 3.706 22.484 L 11.119 22.484 Z M 12.977 6.417 L 16.683 12.844 L 20.39 6.427 L 16.683 0 Z" fill="rgb(242,242,242)"></path></g></svg>