<svg display="block" role="presentation" viewBox="0 0 1428 290" xmlns="http://www.w3.org/2000/svg"><g opacity="0.1"><path d="M 92.261 290.022 C 74.076 290.022 58.031 285.342 44.125 275.982 C 30.219 266.622 19.388 254.053 11.633 238.275 C 3.878 222.497 0 204.981 0 185.726 C 0 166.472 3.878 148.955 11.633 133.177 C 19.388 117.399 30.219 104.83 44.125 95.471 C 58.03 86.11 74.076 81.43 92.26 81.43 C 110.713 81.43 126.758 86.11 140.397 95.47 C 154.303 104.829 165.133 117.398 172.889 133.176 C 180.644 148.687 184.522 166.203 184.522 185.725 C 184.522 204.98 180.644 222.496 172.889 238.274 C 165.133 254.052 154.303 266.621 140.397 275.981 C 126.758 285.341 110.713 290.021 92.26 290.021 Z M 95.471 272.773 C 108.842 272.773 119.539 269.296 127.561 262.343 C 135.851 255.123 141.868 245.763 145.612 234.264 C 149.356 222.497 151.228 209.794 151.228 196.156 C 151.228 186.796 150.159 176.634 148.019 165.669 C 146.147 154.438 142.804 143.741 137.991 133.578 C 133.445 123.416 127.16 115.126 119.137 108.708 C 111.115 102.022 101.086 98.68 89.052 98.68 C 75.681 98.68 64.85 102.29 56.56 109.51 C 48.537 116.463 42.654 125.689 38.91 137.189 C 35.166 148.688 33.294 161.391 33.294 175.297 C 33.294 184.656 34.23 194.952 36.102 206.184 C 38.225 217.095 41.59 227.728 46.131 237.874 C 50.944 248.036 57.362 256.46 65.385 263.145 C 73.408 269.564 83.436 272.773 95.47 272.773 Z M 225.219 288.016 L 225.219 43.724 C 225.219 34.899 223.481 28.748 220.004 25.272 C 218.132 23.4 215.859 22.062 213.185 21.26 C 210.511 20.458 206.499 20.057 201.151 20.057 L 199.145 20.057 L 199.145 5.215 L 253.299 5.215 L 253.299 126.759 C 259.717 112.586 268.809 101.488 280.576 93.465 C 292.61 85.442 305.981 81.431 320.69 81.431 C 337.537 81.431 351.978 85.977 364.012 95.069 C 376.046 103.894 385.272 116.062 391.691 131.573 C 398.376 146.816 401.719 164.199 401.719 183.721 C 401.719 203.777 398.243 221.828 391.29 237.874 C 384.337 253.919 374.442 266.622 361.605 275.982 C 349.037 285.342 334.328 290.022 317.48 290.022 C 305.714 290.022 295.685 288.417 287.395 285.208 C 279.105 281.731 272.152 278.389 266.536 275.18 C 261.188 271.703 256.508 269.965 252.496 269.965 C 247.95 269.965 244.741 271.436 242.869 274.377 C 240.997 277.319 240.061 281.865 240.061 288.016 Z M 272.954 251.914 C 278.035 258.064 283.919 263.012 290.604 266.756 C 297.557 270.232 305.179 271.97 313.469 271.97 C 327.108 271.97 337.938 268.227 345.961 260.739 C 354.251 252.983 360.268 243.089 364.012 231.055 C 367.756 218.753 369.628 206.05 369.628 192.947 C 369.628 175.832 367.221 160.722 362.408 147.618 C 357.862 134.514 351.176 124.219 342.351 116.731 C 333.526 109.243 322.963 105.499 310.661 105.499 C 302.638 105.499 295.418 107.103 289 110.313 C 282.582 113.522 276.966 117.934 272.152 123.55 C 266.269 130.771 261.589 139.462 258.112 149.624 C 254.903 159.786 253.299 170.483 253.299 181.715 L 253.299 186.127 C 253.299 199.231 254.903 211.533 258.112 223.032 C 261.589 234.531 266.536 244.158 272.954 251.914 Z M 431.817 288.016 L 431.817 213.806 L 445.857 213.806 C 448.263 232.258 455.216 246.699 466.716 257.128 C 478.482 267.558 492.656 272.773 509.236 272.773 C 522.607 272.773 532.769 269.43 539.722 262.744 C 546.676 256.059 550.152 247.769 550.152 237.874 C 550.152 229.049 547.21 222.363 541.327 217.817 C 535.711 213.271 528.357 209.661 519.265 206.986 C 510.44 204.312 500.946 201.772 490.784 199.365 C 480.889 196.691 471.396 193.348 462.303 189.336 C 453.478 185.058 446.124 179.041 440.241 171.285 C 434.625 163.53 431.817 152.967 431.817 139.596 C 431.817 130.236 434.224 121.143 439.037 112.318 C 444.118 103.226 451.473 95.872 461.1 90.256 C 470.994 84.372 483.296 81.431 498.004 81.431 C 506.829 81.431 514.05 82.501 519.666 84.64 C 525.549 86.512 530.496 88.517 534.508 90.657 C 538.519 92.529 541.996 93.465 544.937 93.465 C 547.077 93.465 548.949 92.93 550.553 91.86 C 552.158 90.523 552.96 87.715 552.96 83.436 L 566.197 83.436 L 566.197 149.624 L 552.158 149.624 C 551.088 135.45 545.873 123.416 536.513 113.522 C 527.154 103.627 514.986 98.68 500.01 98.68 C 486.104 98.68 475.541 101.889 468.32 108.307 C 461.367 114.725 457.891 122.48 457.891 131.573 C 457.891 140.13 460.699 146.816 466.315 151.63 C 472.198 156.176 479.552 159.786 488.377 162.46 C 497.841 165.24 507.335 167.914 516.858 170.483 C 527.02 172.89 536.513 176.233 545.338 180.511 C 554.431 184.523 561.785 190.406 567.401 198.161 C 573.284 205.917 576.226 216.48 576.226 229.851 C 576.226 239.746 573.953 249.373 569.407 258.733 C 564.86 267.825 557.774 275.313 548.146 281.197 C 538.786 287.08 526.752 290.022 512.044 290.022 C 502.149 290.022 493.726 288.818 486.772 286.411 C 479.819 284.005 473.936 281.731 469.122 279.592 C 464.309 277.185 459.763 275.982 455.484 275.982 C 452.81 275.982 450.403 276.784 448.263 278.389 C 446.391 279.993 445.322 283.202 445.054 288.016 Z M 617.797 21.26 C 617.797 15.377 619.802 10.43 623.814 6.418 C 627.825 2.14 632.773 0 638.656 0 C 644.539 0 649.487 2.14 653.498 6.418 C 657.777 10.43 659.916 15.377 659.916 21.26 C 659.916 27.144 657.777 32.091 653.498 36.102 C 649.487 40.114 644.539 42.119 638.656 42.119 C 632.773 42.119 627.825 40.114 623.814 36.102 C 619.802 32.091 617.797 27.144 617.797 21.26 Z M 599.746 286.01 L 599.746 271.168 L 601.751 271.168 C 607.1 271.168 611.111 270.767 613.785 269.965 C 616.46 269.163 618.733 267.825 620.605 265.953 C 624.081 262.477 625.819 256.192 625.819 247.1 L 625.819 124.352 C 625.819 115.26 624.081 108.975 620.605 105.499 C 618.733 103.627 616.46 102.29 613.785 101.488 C 611.111 100.685 607.1 100.284 601.751 100.284 L 599.746 100.284 L 599.746 85.442 L 653.899 85.442 L 653.899 247.1 C 653.899 256.192 655.637 262.477 659.114 265.953 C 660.986 267.825 663.259 269.163 665.933 269.965 C 668.875 270.767 672.886 271.168 677.967 271.168 L 679.973 271.168 L 679.973 286.01 Z M 851.311 286.01 L 851.311 240.682 C 845.428 255.925 836.469 267.959 824.435 276.784 C 812.401 285.609 798.896 290.022 783.92 290.022 C 766.538 290.022 751.562 285.609 738.993 276.784 C 726.692 267.692 717.198 255.39 710.512 239.88 C 704.094 224.369 700.885 206.986 700.885 187.732 C 700.885 167.675 704.495 149.624 711.716 133.578 C 718.936 117.533 729.232 104.83 742.603 95.47 C 756.242 86.11 772.421 81.43 791.141 81.43 C 803.977 81.43 815.476 83.838 825.639 88.651 C 835.801 93.197 843.69 98.145 849.306 103.493 L 849.306 44.125 C 849.306 35.033 847.567 28.748 844.091 25.272 C 842.219 23.4 839.812 22.062 836.87 21.26 C 833.929 20.458 829.383 20.057 823.232 20.057 L 819.22 20.057 L 819.22 5.215 L 877.385 5.215 L 877.385 247.5 C 877.385 256.325 879.123 262.476 882.6 265.952 C 884.472 267.824 886.745 269.162 889.419 269.964 C 892.361 270.766 896.372 271.167 901.453 271.167 L 903.459 271.167 L 903.459 286.009 L 851.311 286.009 Z M 793.949 265.953 C 800.902 265.953 807.454 264.349 813.605 261.14 C 820.023 257.931 825.639 253.518 830.452 247.902 C 836.603 240.682 841.283 231.991 844.492 221.828 C 847.701 211.666 849.306 200.969 849.306 189.738 L 849.306 185.325 C 849.306 172.756 847.835 161.123 844.893 150.426 C 841.951 139.462 837.673 130.102 832.057 122.347 C 826.976 115.126 820.825 109.51 813.605 105.499 C 806.384 101.488 798.228 99.482 789.135 99.482 C 775.764 99.482 764.933 103.36 756.643 111.115 C 748.353 118.603 742.336 128.364 738.592 140.398 C 734.848 152.432 732.976 165.135 732.976 178.506 C 732.976 195.353 735.383 210.463 740.197 223.834 C 745.01 236.938 751.963 247.234 761.056 254.722 C 770.148 262.21 781.112 265.953 793.949 265.953 Z M 938.659 21.26 C 938.659 15.377 940.664 10.43 944.676 6.418 C 948.687 2.14 953.635 0 959.518 0 C 965.401 0 970.349 2.14 974.36 6.418 C 978.639 10.43 980.778 15.377 980.778 21.26 C 980.778 27.144 978.639 32.091 974.36 36.102 C 970.349 40.114 965.401 42.119 959.518 42.119 C 953.635 42.119 948.687 40.114 944.676 36.102 C 940.664 32.091 938.659 27.144 938.659 21.26 Z M 920.608 286.01 L 920.608 271.168 L 922.613 271.168 C 927.962 271.168 931.973 270.767 934.647 269.965 C 937.322 269.163 939.595 267.825 941.467 265.953 C 944.943 262.477 946.681 256.192 946.681 247.1 L 946.681 124.352 C 946.681 115.26 944.943 108.975 941.467 105.499 C 939.595 103.627 937.322 102.29 934.647 101.488 C 931.973 100.685 927.962 100.284 922.613 100.284 L 920.608 100.284 L 920.608 85.442 L 974.761 85.442 L 974.761 247.1 C 974.761 256.192 976.499 262.477 979.976 265.953 C 981.848 267.825 984.121 269.163 986.795 269.965 C 989.737 270.767 993.748 271.168 998.829 271.168 L 1000.83 271.168 L 1000.83 286.01 Z M 1146.5 175.698 L 1146.5 147.618 C 1146.5 138.526 1145.56 131.305 1143.69 125.957 C 1142.09 120.341 1139.68 115.661 1136.47 111.917 C 1128.98 103.092 1118.02 98.68 1103.58 98.68 C 1091.28 98.68 1081.92 101.755 1075.5 107.906 C 1069.08 114.057 1065.87 121.277 1065.87 129.567 L 1065.87 135.183 C 1066.14 137.055 1066.27 139.061 1066.27 141.2 C 1066.27 153.502 1060.39 159.652 1048.62 159.652 C 1044.34 159.652 1040.2 157.914 1036.19 154.438 C 1032.18 150.694 1030.17 145.078 1030.17 137.59 C 1030.17 128.765 1033.11 120.074 1039 111.516 C 1044.88 102.691 1053.3 95.47 1064.27 89.855 C 1075.5 84.239 1088.87 81.431 1104.38 81.431 C 1128.45 81.431 1146.63 87.849 1158.94 100.685 C 1163.75 105.766 1167.49 112.051 1170.17 119.539 C 1173.11 127.027 1174.58 137.055 1174.58 149.624 L 1174.58 244.292 C 1174.58 248.838 1174.98 252.315 1175.78 254.722 C 1176.59 256.861 1177.66 258.599 1178.99 259.936 C 1181.67 262.611 1185.41 263.948 1190.22 263.948 C 1192.36 263.948 1195.04 263.279 1198.25 261.942 C 1201.72 260.605 1204.93 258.064 1207.87 254.32 L 1216.7 260.739 C 1213.22 269.564 1208.41 276.65 1202.26 281.999 C 1196.38 287.347 1189.15 290.022 1180.6 290.022 C 1171.24 290.022 1163.21 286.946 1156.53 280.795 C 1149.84 274.645 1146.5 265.82 1146.5 254.32 C 1141.69 263.413 1134.33 271.703 1124.44 279.191 C 1114.54 286.411 1102.51 290.022 1088.34 290.022 C 1076.3 290.022 1065.47 287.749 1055.84 283.202 C 1046.22 278.389 1038.46 271.837 1032.58 263.547 C 1026.96 254.989 1024.15 245.094 1024.15 233.863 C 1024.15 214.875 1032.18 200.167 1048.22 189.738 C 1064.54 179.041 1088.6 173.692 1120.43 173.692 C 1124.71 173.692 1128.85 173.96 1132.86 174.494 C 1136.87 174.762 1141.42 175.163 1146.5 175.698 Z M 1146.5 198.964 L 1146.5 191.743 C 1140.35 190.941 1135.14 190.406 1130.86 190.139 C 1126.84 189.871 1123.37 189.738 1120.43 189.738 C 1109.73 189.738 1099.43 191.208 1089.54 194.15 C 1079.64 196.824 1071.62 201.103 1065.47 206.986 C 1059.32 212.87 1056.24 220.759 1056.24 230.653 C 1056.24 240.281 1059.59 248.571 1066.27 255.524 C 1072.96 262.477 1082.32 265.953 1094.35 265.953 C 1105.05 265.953 1114.14 263.547 1121.63 258.733 C 1129.12 253.919 1134.87 247.769 1138.88 240.281 C 1141.55 235.467 1143.43 229.851 1144.49 223.433 C 1145.83 216.747 1146.5 208.591 1146.5 198.964 Z M 1221.1 286.01 L 1221.1 271.168 L 1223.11 271.168 C 1228.45 271.168 1232.46 270.767 1235.14 269.965 C 1237.81 269.163 1240.09 267.825 1241.96 265.953 C 1245.43 262.477 1247.17 256.192 1247.17 247.1 L 1247.17 123.951 C 1247.17 115.126 1245.43 108.975 1241.96 105.499 C 1240.09 103.627 1237.81 102.29 1235.14 101.488 C 1232.46 100.685 1228.45 100.284 1223.11 100.284 L 1221.1 100.284 L 1221.1 85.442 L 1273.25 85.442 L 1273.25 127.561 C 1277.79 114.19 1285.82 103.226 1297.32 94.668 C 1309.08 85.843 1323.12 81.431 1339.43 81.431 C 1347.72 81.431 1355.88 82.901 1363.9 85.843 C 1371.93 88.517 1378.88 92.93 1384.76 99.081 C 1390.11 104.697 1394.26 111.783 1397.2 120.341 C 1400.14 128.899 1401.61 139.596 1401.61 152.432 L 1401.61 247.1 C 1401.61 256.192 1403.35 262.477 1406.83 265.953 C 1408.7 267.825 1410.97 269.163 1413.64 269.965 C 1416.59 270.767 1420.6 271.168 1425.68 271.168 L 1427.68 271.168 L 1427.68 286.01 L 1349.46 286.01 L 1349.46 271.168 L 1351.47 271.168 C 1359.22 271.168 1364.84 269.43 1368.32 265.953 C 1371.79 262.477 1373.53 256.192 1373.53 247.1 L 1373.53 160.053 C 1373.53 148.019 1372.6 138.927 1370.72 132.776 C 1369.12 126.358 1366.71 121.411 1363.5 117.934 C 1356.55 109.644 1346.52 105.499 1333.42 105.499 C 1323.79 105.499 1315.23 107.237 1307.74 110.714 C 1300.52 114.19 1294.64 118.87 1290.09 124.753 C 1285.55 130.369 1281.94 137.322 1279.26 145.613 C 1276.59 153.903 1275.25 165.001 1275.25 178.907 L 1275.25 247.1 C 1275.25 256.192 1276.99 262.477 1280.47 265.953 C 1283.94 269.43 1289.56 271.168 1297.32 271.168 L 1299.32 271.168 L 1299.32 286.01 Z" fill="rgb(255, 255, 255)" height="290.02200030517577px" id="FzCEhwwqM" width="1427.6799755859374px"/></g></svg>