<svg width="111" height="17" xmlns="http://www.w3.org/2000/svg" viewBox="0 0 117 17.878" overflow="visible"><path d="M 97.6 4.716 C 98.836 4.716 99.936 4.999 100.898 5.566 C 101.852 6.124 102.629 6.941 103.137 7.923 C 103.274 8.186 103.392 8.461 103.495 8.743 L 103.494 8.743 C 103.782 9.537 103.929 10.403 103.929 11.345 C 103.929 12.605 103.659 13.73 103.121 14.719 C 102.603 15.688 101.824 16.493 100.871 17.04 C 99.908 17.599 98.81 17.878 97.574 17.878 C 96.339 17.878 95.239 17.602 94.276 17.053 C 93.324 16.513 92.547 15.712 92.038 14.743 C 91.508 13.754 91.243 12.629 91.243 11.369 C 91.243 10.555 91.364 9.801 91.58 9.098 L 91.585 9.097 C 91.712 8.685 91.863 8.287 92.065 7.912 C 92.582 6.929 93.366 6.112 94.327 5.555 C 95.291 4.996 96.381 4.715 97.601 4.715 Z M 20.585 4.716 C 22.382 4.716 23.703 5.067 24.545 5.769 C 25.387 6.472 25.809 7.461 25.809 8.737 L 25.809 17.157 C 25.809 17.332 25.781 17.457 25.725 17.528 C 25.667 17.601 25.559 17.637 25.398 17.637 L 23.352 17.637 C 23.209 17.637 23.105 17.589 23.041 17.493 C 22.963 17.361 22.913 17.215 22.895 17.063 L 22.871 16.346 C 22.856 16.203 22.798 16.131 22.703 16.131 C 22.654 16.131 22.55 16.195 22.39 16.322 C 21.266 17.359 19.95 17.877 18.442 17.877 C 17.222 17.877 16.256 17.553 15.541 16.907 C 14.827 16.261 14.471 15.42 14.471 14.383 C 14.471 13.06 15.064 12.006 16.251 11.225 C 17.438 10.442 19.1 10.01 21.233 9.931 L 22.436 9.861 C 22.692 9.829 22.821 9.71 22.821 9.502 L 22.821 8.952 C 22.821 8.251 22.609 7.704 22.184 7.312 C 21.758 6.922 21.176 6.728 20.439 6.728 C 19.219 6.728 18.28 7.254 17.623 8.307 C 17.573 8.37 17.53 8.423 17.49 8.462 C 17.449 8.503 17.392 8.525 17.334 8.522 C 17.269 8.524 17.204 8.516 17.142 8.498 L 15.12 7.995 C 14.992 7.964 14.928 7.891 14.928 7.779 C 14.928 7.699 14.962 7.596 15.025 7.468 C 15.442 6.575 16.128 5.893 17.083 5.422 C 18.038 4.952 19.206 4.716 20.585 4.716 Z M 64.748 4.713 C 65.952 4.713 67.014 4.977 67.936 5.503 C 68.86 6.031 69.573 6.793 70.079 7.789 C 70.585 8.787 70.838 9.972 70.838 11.344 L 70.838 11.439 C 70.838 11.599 70.814 11.711 70.766 11.774 C 70.716 11.839 70.612 11.88 70.451 11.894 L 61.931 11.894 C 61.755 11.894 61.666 12.023 61.666 12.277 C 61.666 12.931 61.818 13.517 62.124 14.035 C 62.316 14.363 62.558 14.641 62.846 14.877 L 62.842 14.877 C 63.008 15.017 63.187 15.147 63.385 15.256 C 63.927 15.552 64.536 15.704 65.153 15.698 C 65.81 15.698 66.409 15.559 66.946 15.279 C 67.486 15.001 67.994 14.566 68.476 13.976 C 68.556 13.896 68.62 13.856 68.668 13.856 C 68.745 13.865 68.819 13.889 68.885 13.928 L 70.353 14.573 C 70.466 14.621 70.522 14.693 70.523 14.79 C 70.523 14.838 70.489 14.91 70.426 15.006 C 69.703 16.043 68.906 16.781 68.03 17.219 C 67.155 17.657 66.077 17.877 64.793 17.877 C 63.574 17.877 62.478 17.606 61.508 17.063 C 61.142 16.854 60.799 16.607 60.485 16.326 L 60.488 16.323 C 59.987 15.886 59.565 15.367 59.238 14.788 C 58.691 13.814 58.418 12.706 58.418 11.461 C 58.418 10.121 58.699 8.941 59.261 7.92 C 59.822 6.9 60.584 6.108 61.547 5.55 C 62.51 4.993 63.577 4.713 64.748 4.713 Z M 34.807 4.716 C 35.385 4.716 35.672 4.844 35.676 5.1 L 35.676 7.397 C 35.676 7.593 35.596 7.69 35.436 7.69 C 35.411 7.69 35.386 7.689 35.362 7.685 C 34.873 7.569 34.372 7.512 33.869 7.517 C 33.453 7.517 33.015 7.629 32.558 7.852 C 32.122 8.058 31.736 8.356 31.427 8.726 C 31.13 9.084 30.981 9.456 30.981 9.838 L 30.981 17.16 C 30.981 17.48 30.797 17.64 30.428 17.64 L 28.285 17.64 C 27.996 17.64 27.852 17.495 27.852 17.209 L 27.852 5.363 C 27.852 5.093 27.962 4.957 28.187 4.957 L 30.522 4.957 C 30.747 4.957 30.858 5.077 30.858 5.315 L 30.858 6.775 C 30.858 6.902 30.9 6.965 30.98 6.965 C 31.029 6.965 31.092 6.925 31.172 6.847 C 31.7 6.177 32.287 5.654 32.929 5.279 C 33.571 4.904 34.196 4.716 34.807 4.716 Z M 44.865 4.691 C 45.731 4.691 46.461 4.893 47.055 5.301 C 47.629 5.682 48.06 6.241 48.283 6.893 C 48.316 6.94 48.356 6.965 48.404 6.965 C 48.468 6.965 48.54 6.925 48.62 6.845 C 50.047 5.426 51.469 4.715 52.88 4.715 C 54.019 4.715 54.916 5.051 55.575 5.721 C 56.234 6.391 56.562 7.317 56.562 8.497 L 56.562 17.136 C 56.562 17.471 56.395 17.639 56.059 17.639 L 53.845 17.639 C 53.699 17.639 53.595 17.607 53.531 17.542 C 53.466 17.479 53.435 17.368 53.435 17.208 L 53.435 8.976 C 53.435 8.352 53.273 7.871 52.952 7.527 C 52.632 7.184 52.167 7.013 51.557 7.013 C 51.059 7.013 50.577 7.143 50.112 7.407 C 49.646 7.671 49.229 7.987 48.859 8.353 C 48.676 8.538 48.572 8.787 48.57 9.047 L 48.57 17.137 C 48.57 17.472 48.402 17.64 48.065 17.64 L 45.85 17.64 C 45.577 17.64 45.441 17.495 45.441 17.209 L 45.441 8.978 C 45.441 8.354 45.285 7.873 44.971 7.529 C 44.658 7.186 44.189 7.014 43.564 7.014 C 43.046 7.011 42.536 7.143 42.084 7.396 C 41.627 7.651 41.124 8.066 40.579 8.64 L 40.579 17.16 C 40.579 17.335 40.539 17.458 40.458 17.53 C 40.378 17.602 40.234 17.639 40.025 17.639 L 37.883 17.639 C 37.723 17.639 37.61 17.607 37.546 17.542 C 37.483 17.479 37.451 17.367 37.451 17.208 L 37.451 5.362 C 37.451 5.092 37.563 4.956 37.788 4.956 L 40.17 4.956 C 40.394 4.956 40.507 5.076 40.507 5.314 L 40.507 6.56 C 40.507 6.654 40.531 6.71 40.579 6.727 C 40.589 6.73 40.6 6.731 40.611 6.731 C 40.655 6.731 40.71 6.705 40.773 6.654 C 41.495 6 42.176 5.508 42.818 5.182 C 43.451 4.857 44.153 4.689 44.864 4.692 Z M 116.998 8.731 L 116.998 17.137 C 116.998 17.472 116.828 17.64 116.492 17.64 L 114.278 17.64 C 114.118 17.64 114.01 17.606 113.954 17.543 C 113.896 17.48 113.87 17.368 113.87 17.209 L 113.87 8.977 C 113.87 8.887 113.859 8.808 113.852 8.726 C 114.904 8.726 115.953 8.726 116.998 8.731 Z M 7.112 0 C 9.127 0 10.788 0.455 12.048 1.352 C 13.302 2.244 13.938 3.59 13.94 5.349 C 13.94 7.029 13.35 8.342 12.192 9.251 C 11.03 10.163 9.459 10.627 7.524 10.627 L 3.744 10.627 C 3.551 10.627 3.444 10.735 3.444 10.926 L 3.444 17.219 C 3.444 17.505 3.294 17.639 2.974 17.639 L 0.374 17.639 C 0.12 17.639 0 17.519 0 17.267 L 0 0.347 C 0 0.11 0.096 0 0.302 0 Z M 89.102 4.956 C 89.328 4.956 89.439 5.084 89.439 5.339 L 89.439 9.228 L 89.441 9.228 L 89.441 17.112 C 89.441 17.303 89.396 17.439 89.309 17.519 C 89.219 17.599 89.072 17.639 88.863 17.639 L 86.77 17.639 C 86.595 17.639 86.473 17.608 86.41 17.543 C 86.344 17.48 86.312 17.368 86.312 17.208 L 86.314 17.208 L 86.314 9.468 L 86.312 9.47 L 86.312 5.362 C 86.312 5.092 86.432 4.956 86.672 4.956 Z M 80.269 4.716 C 81.456 4.716 82.391 5.056 83.073 5.733 C 83.755 6.413 84.097 7.31 84.097 8.427 L 84.097 17.135 C 84.097 17.47 83.929 17.638 83.591 17.638 L 81.377 17.638 C 81.217 17.638 81.107 17.606 81.051 17.541 C 80.994 17.478 80.967 17.366 80.967 17.207 L 80.967 8.977 C 80.967 8.353 80.795 7.872 80.45 7.528 C 80.105 7.185 79.601 7.014 78.944 7.014 C 78.384 7.014 77.874 7.14 77.417 7.396 C 76.959 7.651 76.443 8.067 75.864 8.641 L 75.864 17.159 C 75.864 17.334 75.824 17.457 75.744 17.529 C 75.663 17.601 75.518 17.638 75.311 17.638 L 73.168 17.638 C 73.008 17.638 72.894 17.606 72.83 17.541 C 72.767 17.478 72.735 17.366 72.735 17.207 L 72.735 5.365 C 72.735 5.095 72.847 4.958 73.071 4.958 L 75.478 4.958 C 75.688 4.958 75.792 5.078 75.792 5.316 L 75.792 6.561 C 75.792 6.655 75.815 6.711 75.863 6.728 C 75.873 6.73 75.884 6.731 75.894 6.731 C 75.939 6.731 75.993 6.706 76.058 6.655 C 76.811 6 77.514 5.513 78.163 5.195 C 78.818 4.874 79.539 4.71 80.269 4.715 Z M 113.173 4.716 C 114.359 4.716 115.294 5.056 115.977 5.733 C 116.658 6.411 117 7.309 117 8.426 L 117 8.729 C 115.951 8.725 114.902 8.723 113.853 8.724 C 113.81 8.224 113.648 7.82 113.353 7.526 C 113.007 7.183 112.506 7.012 111.848 7.012 C 111.314 7.005 110.787 7.137 110.32 7.395 C 109.863 7.65 109.344 8.066 108.768 8.64 L 108.768 8.729 L 108.766 8.729 L 108.766 17.159 C 108.766 17.334 108.727 17.457 108.646 17.529 C 108.566 17.602 108.423 17.638 108.214 17.638 L 106.07 17.638 C 105.912 17.638 105.798 17.605 105.734 17.542 C 105.671 17.479 105.639 17.367 105.639 17.207 L 105.639 5.363 C 105.639 5.093 105.75 4.957 105.976 4.957 L 108.383 4.957 C 108.59 4.957 108.695 5.077 108.695 5.315 L 108.695 6.561 C 108.695 6.655 108.719 6.712 108.768 6.728 C 108.778 6.731 108.788 6.732 108.798 6.731 C 108.842 6.731 108.895 6.706 108.96 6.655 C 109.714 6 110.417 5.513 111.066 5.195 C 111.722 4.874 112.443 4.71 113.173 4.715 Z M 21.476 11.514 C 20.352 11.594 19.417 11.846 18.671 12.268 C 17.924 12.691 17.551 13.268 17.551 14.002 C 17.551 14.544 17.749 14.975 18.143 15.294 C 18.535 15.613 19.06 15.772 19.719 15.773 C 20.551 15.773 21.283 15.518 21.909 15.008 C 22.519 14.529 22.823 14.042 22.823 13.547 L 22.823 11.847 C 22.823 11.705 22.795 11.6 22.739 11.537 C 22.683 11.473 22.591 11.441 22.463 11.441 Z M 97.599 6.774 C 96.588 6.774 95.806 7.166 95.252 7.947 C 95.039 8.253 94.873 8.588 94.758 8.943 L 94.754 8.943 C 94.533 9.593 94.421 10.377 94.421 11.297 C 94.421 12.733 94.697 13.835 95.251 14.6 C 95.805 15.366 96.586 15.749 97.598 15.749 C 98.624 15.749 99.408 15.366 99.945 14.599 C 100.482 13.833 100.752 12.733 100.752 11.297 C 100.752 10.299 100.618 9.462 100.361 8.78 C 100.253 8.486 100.11 8.206 99.934 7.947 C 99.389 7.166 98.61 6.774 97.599 6.774 Z M 64.867 6.678 C 63.921 6.678 63.155 7.009 62.569 7.67 C 61.983 8.332 61.699 9.15 61.714 10.126 L 67.37 10.126 C 67.53 10.126 67.64 10.106 67.696 10.066 C 67.752 10.025 67.78 9.933 67.78 9.79 C 67.78 9.278 67.667 8.784 67.443 8.306 C 67.221 7.832 66.876 7.427 66.443 7.133 C 66.003 6.83 65.477 6.678 64.867 6.678 Z M 3.911 2.443 C 3.605 2.443 3.443 2.596 3.443 2.885 L 3.443 7.719 C 3.443 7.877 3.471 7.992 3.528 8.065 C 3.588 8.143 3.684 8.184 3.815 8.184 L 7.063 8.184 C 8.086 8.184 8.903 7.934 9.497 7.44 C 10.094 6.944 10.396 6.216 10.397 5.278 C 10.397 4.322 10.081 3.601 9.459 3.138 C 8.841 2.677 7.987 2.443 6.919 2.443 L 3.912 2.443 Z M 89.126 0.213 C 89.226 0.208 89.322 0.247 89.391 0.319 C 89.459 0.404 89.493 0.511 89.487 0.619 L 89.487 2.94 C 89.487 3.132 89.442 3.272 89.354 3.36 C 89.266 3.448 89.118 3.491 88.909 3.491 L 86.719 3.491 C 86.543 3.491 86.423 3.452 86.357 3.371 C 86.294 3.291 86.262 3.172 86.262 3.013 L 86.262 0.667 C 86.262 0.365 86.39 0.213 86.647 0.213 Z" fill="white"></path></svg>
