<svg width="89" height="21" xmlns="http://www.w3.org/2000/svg" viewBox="0 0 89.002 20.538" overflow="visible"><g><path d="M 0 0 L 89 0 L 89 20.538 L 0 20.538 Z" fill="transparent"></path><path d="M 57.872 7.588 C 56.377 6.275 54.572 5.633 52.485 5.633 C 50.427 5.633 48.622 6.276 47.125 7.588 C 45.631 8.873 44.871 10.662 44.871 12.954 C 44.871 15.245 45.631 17.034 47.126 18.347 C 48.621 19.632 50.427 20.275 52.486 20.275 C 54.572 20.275 56.376 19.632 57.872 18.347 C 59.396 17.033 60.156 15.245 60.156 12.954 C 60.156 10.662 59.396 8.874 57.872 7.588 Z M 49.666 15.888 C 48.878 15.133 48.481 14.155 48.481 12.954 C 48.481 11.752 48.874 10.774 49.666 10.048 C 50.455 9.294 51.386 8.93 52.484 8.93 C 53.582 8.93 54.542 9.294 55.332 10.048 C 56.148 10.774 56.545 11.752 56.545 12.954 C 56.545 14.155 56.151 15.134 55.332 15.887 C 54.543 16.614 53.583 16.977 52.484 16.977 C 51.387 16.977 50.457 16.614 49.666 15.887 Z M 65.489 19.883 L 65.489 0.708 L 61.935 0.708 L 61.935 19.883 Z M 76.959 6.023 L 76.959 13.673 C 76.959 15.517 75.953 16.739 74.039 16.739 C 72.092 16.739 71.113 15.519 71.113 13.674 L 71.113 6.024 L 67.553 6.024 L 67.553 14.261 C 67.553 17.452 69.583 20.273 74.038 20.273 L 74.066 20.273 C 78.493 20.273 80.52 17.39 80.52 14.261 L 80.52 6.023 L 76.96 6.023 Z M 41.088 6.023 L 37.535 15.412 L 33.981 6.023 L 30.202 6.023 L 35.872 19.883 L 39.202 19.883 L 44.87 6.023 Z M 30.221 12.562 C 30.221 10.55 29.573 8.902 28.303 7.588 C 27.033 6.275 25.4 5.633 23.397 5.633 C 21.339 5.633 19.589 6.332 18.15 7.7 C 16.74 9.07 16.036 10.802 16.036 12.954 C 16.036 15.106 16.74 16.866 18.123 18.234 C 19.533 19.604 21.226 20.274 23.228 20.274 C 26.303 20.274 28.474 18.934 29.797 16.224 L 27.147 14.714 C 26.274 16.418 25.004 17.257 23.284 17.257 C 21.17 17.257 19.674 15.916 19.449 13.792 L 30.219 13.792 L 30.219 12.562 Z M 23.281 8.315 C 25.284 8.315 26.611 9.432 26.948 11.221 L 19.446 11.221 C 19.984 9.573 21.448 8.315 23.282 8.315 Z M 16.036 19.883 L 11.268 11.613 C 14.284 10.523 15.779 8.623 15.779 5.856 C 15.783 2.476 13.073 0.323 8.759 0.323 L 0.329 0.323 L 0.329 19.883 L 4.05 19.883 L 4.05 11.947 L 7.21 11.947 L 11.777 19.883 L 16.035 19.883 Z M 8.759 3.563 C 10.959 3.563 12.059 4.43 12.059 6.134 C 12.059 7.839 10.958 8.704 8.759 8.704 L 4.05 8.704 L 4.05 3.564 L 8.758 3.564 Z M 86.544 20.273 C 84.258 20.273 82.402 18.435 82.402 16.166 L 82.402 2.279 L 85.955 2.279 L 85.955 6.029 L 89.002 6.029 L 89.002 8.879 L 85.956 8.879 L 85.956 15.939 C 85.957 16.26 86.086 16.567 86.314 16.793 C 86.542 17.02 86.851 17.146 87.172 17.144 L 89.002 17.144 L 89.002 20.274 L 86.544 20.274 Z" fill="white"></path></g></svg>
