<svg xmlns="http://www.w3.org/2000/svg" xmlns:xlink="http://www.w3.org/1999/xlink" viewBox="0 0 130.07 25" overflow="visible"><path d="M 21.31 3.888 L 21.2 3.772 L 21.088 3.658 C 16.346 -1.143 8.678 -1.218 3.846 3.433 L 3.732 3.544 L 3.619 3.656 C 1.285 6.019 0 9.16 0 12.501 L 0 12.657 C 0.04 15.939 1.322 19.02 3.619 21.344 L 3.732 21.456 C 6.125 23.819 9.24 25 12.355 25 L 12.503 25 C 15.617 24.961 18.719 23.743 21.091 21.342 L 21.201 21.228 C 25.833 16.419 25.87 8.739 21.312 3.886 L 21.31 3.888 Z M 11.399 5.97 L 11.797 11.914 L 9.074 8.497 L 7.919 9.667 L 11.267 12.41 L 5.126 12.063 C 3.463 9.644 2.897 7.653 3.159 6.235 L 3.164 6.206 L 3.204 6.008 C 3.243 5.822 3.283 5.664 3.354 5.503 L 3.393 5.423 C 3.49 5.232 3.644 5.017 3.911 4.745 L 4 4.658 C 4.195 4.47 4.332 4.374 4.464 4.305 L 4.524 4.275 C 4.585 4.247 4.65 4.218 4.725 4.188 L 4.88 4.124 C 4.936 4.101 4.996 4.075 5.061 4.047 C 6.502 3.607 8.67 4.134 11.399 5.972 L 11.399 5.97 Z M 11.795 13.63 L 11.449 18.61 C 10.75 18.067 10.025 17.444 9.274 16.743 L 11.795 13.628 Z M 11.282 13.085 L 8.205 15.708 C 7.484 14.984 6.799 14.224 6.154 13.43 Z M 12.99 12.417 L 16.035 9.895 C 16.758 10.62 17.446 11.381 18.096 12.173 Z M 12.831 7.012 C 13.522 7.554 14.239 8.173 14.979 8.866 L 12.48 11.923 L 12.831 7.01 Z M 15.028 16.817 L 15.205 17.04 L 16.358 15.872 L 16.321 15.842 L 13.023 13.1 L 19.178 13.608 C 20.724 15.845 21.324 17.706 21.185 19.082 L 21.168 19.214 L 21.147 19.35 C 21.055 19.857 20.767 20.255 20.428 20.61 L 20.359 20.681 C 20.156 20.889 19.995 21.05 19.81 21.186 L 19.728 21.243 C 19.51 21.389 19.24 21.513 18.818 21.622 C 17.386 21.859 15.374 21.292 12.923 19.676 L 12.482 13.638 L 15.026 16.82 Z M 16.567 7.437 C 14.222 5.238 11.857 4.063 9.679 3.383 L 9.462 3.317 L 9.24 3.252 C 8.275 2.977 7.384 2.871 6.57 2.94 C 8.237 1.901 10.15 1.329 12.151 1.293 L 12.352 1.293 C 15.31 1.292 18.089 2.458 20.18 4.574 L 20.356 4.757 C 23.722 8.319 24.308 13.595 22.126 17.76 C 22.126 17.083 22.012 16.362 21.786 15.597 L 21.736 15.429 L 21.696 15.303 L 21.624 15.087 C 20.877 12.913 19.494 10.417 17.267 8.123 L 17.041 7.895 L 16.802 7.66 L 16.568 7.437 L 16.567 7.437 Z M 4.394 20.292 C 2.385 18.189 1.281 15.432 1.281 12.499 L 1.281 12.346 C 1.3 10.858 1.612 9.389 2.198 8.024 C 2.223 8.722 2.366 9.467 2.625 10.257 L 2.701 10.481 C 3.493 12.796 4.955 15.451 7.453 17.867 C 10.031 20.364 12.713 21.634 15.081 22.308 C 15.786 22.51 16.453 22.621 17.078 22.638 C 15.601 23.343 13.987 23.708 12.353 23.705 C 9.441 23.705 6.702 22.575 4.623 20.522 L 4.394 20.292 Z M 129.225 15.909 L 130.07 15.909 C 130.008 16.762 129.778 17.593 129.394 18.353 C 129.007 19.119 128.476 19.738 127.8 20.211 C 127.14 20.683 126.327 20.92 125.36 20.92 C 124.282 20.92 123.34 20.659 122.535 20.138 C 121.746 19.616 121.134 18.891 120.7 17.963 C 120.265 17.018 120.048 15.926 120.048 14.688 C 120.048 13.417 120.265 12.301 120.7 11.339 C 121.134 10.362 121.738 9.596 122.511 9.042 C 123.284 8.488 124.177 8.211 125.192 8.211 C 126.302 8.211 127.212 8.48 127.92 9.018 C 128.645 9.539 129.184 10.239 129.538 11.119 C 129.893 11.983 130.07 12.928 130.07 13.954 L 121.738 13.954 C 121.738 15.6 122.1 16.871 122.825 17.767 C 123.565 18.647 124.499 19.087 125.626 19.087 C 126.592 19.087 127.365 18.81 127.945 18.256 C 128.54 17.686 128.967 16.903 129.225 15.909 Z M 121.811 12.903 L 127.993 12.903 C 127.993 11.763 127.743 10.875 127.244 10.239 C 126.761 9.588 126.069 9.262 125.167 9.262 C 124.33 9.262 123.606 9.571 122.994 10.191 C 122.382 10.793 121.988 11.698 121.811 12.903 Z M 109.478 20.675 L 109.478 19.771 L 109.599 19.771 C 109.921 19.771 110.162 19.747 110.323 19.698 C 110.478 19.653 110.619 19.569 110.734 19.453 C 110.943 19.242 111.048 18.859 111.048 18.305 L 111.048 10.802 C 111.048 10.264 110.943 9.889 110.734 9.677 C 110.619 9.562 110.478 9.478 110.323 9.433 C 110.162 9.384 109.921 9.36 109.599 9.36 L 109.478 9.36 L 109.478 8.455 L 112.617 8.455 L 112.617 11.266 C 112.875 10.321 113.302 9.58 113.897 9.042 C 114.493 8.488 115.226 8.211 116.095 8.211 C 116.948 8.211 117.665 8.512 118.244 9.115 C 118.84 9.702 119.138 10.459 119.138 11.388 C 119.138 11.991 119.025 12.431 118.8 12.708 C 118.574 12.968 118.301 13.099 117.979 13.099 C 117.727 13.102 117.485 13.005 117.302 12.83 C 117.125 12.651 117.037 12.423 117.037 12.146 C 117.037 11.967 117.045 11.795 117.061 11.633 C 117.093 11.472 117.109 11.308 117.109 11.144 C 117.109 10.688 116.981 10.329 116.723 10.068 C 116.465 9.808 116.087 9.677 115.588 9.677 C 114.944 9.677 114.405 9.905 113.97 10.362 C 113.551 10.802 113.253 11.331 113.076 11.95 C 112.851 12.7 112.738 13.694 112.738 14.932 L 112.738 18.305 C 112.738 18.859 112.843 19.242 113.052 19.453 C 113.165 19.568 113.31 19.649 113.487 19.698 C 113.664 19.747 113.937 19.771 114.308 19.771 L 114.549 19.771 L 114.549 20.675 Z M 102.488 20.92 C 101.393 20.92 100.427 20.635 99.59 20.064 C 98.752 19.494 98.1 18.728 97.633 17.767 C 97.167 16.806 96.933 15.738 96.933 14.565 C 96.933 13.392 97.167 12.325 97.633 11.364 C 98.1 10.403 98.752 9.637 99.59 9.066 C 100.427 8.496 101.393 8.211 102.488 8.211 C 103.598 8.211 104.564 8.496 105.386 9.066 C 106.223 9.637 106.875 10.403 107.342 11.364 C 107.809 12.309 108.042 13.376 108.042 14.565 C 108.042 15.738 107.809 16.806 107.342 17.767 C 106.875 18.728 106.223 19.494 105.386 20.064 C 104.564 20.635 103.598 20.92 102.488 20.92 Z M 102.681 19.869 C 103.486 19.869 104.13 19.657 104.613 19.233 C 105.112 18.793 105.474 18.223 105.7 17.523 C 105.925 16.806 106.037 16.032 106.037 15.201 C 106.037 14.631 105.973 14.011 105.844 13.343 C 105.734 12.666 105.531 12.008 105.241 11.388 C 104.967 10.769 104.589 10.264 104.106 9.873 C 103.623 9.466 103.019 9.262 102.294 9.262 C 101.489 9.262 100.837 9.482 100.338 9.922 C 99.855 10.345 99.501 10.908 99.276 11.608 C 99.05 12.309 98.937 13.083 98.937 13.93 C 98.937 14.5 98.994 15.128 99.107 15.812 C 99.234 16.477 99.437 17.124 99.71 17.743 C 100 18.362 100.387 18.875 100.869 19.282 C 101.352 19.673 101.956 19.869 102.681 19.869 Z M 94.364 14.443 L 95.33 14.443 C 95.25 15.584 94.984 16.651 94.533 17.645 C 94.099 18.623 93.463 19.413 92.625 20.015 C 91.804 20.618 90.758 20.92 89.486 20.92 C 87.892 20.92 86.556 20.529 85.477 19.747 C 84.415 18.965 83.618 17.914 83.086 16.594 C 82.555 15.274 82.289 13.824 82.289 12.244 C 82.289 11.087 82.434 9.979 82.724 8.92 C 83.03 7.844 83.473 6.891 84.052 6.06 C 84.648 5.213 85.381 4.545 86.25 4.056 C 87.119 3.567 88.134 3.323 89.293 3.323 C 90.017 3.323 90.605 3.404 91.056 3.567 C 91.507 3.73 91.877 3.893 92.167 4.056 C 92.457 4.219 92.714 4.301 92.939 4.301 C 93.39 4.301 93.624 4.015 93.64 3.445 L 94.606 3.445 L 94.606 9.555 L 93.64 9.555 C 93.608 8.627 93.422 7.771 93.084 6.989 C 92.762 6.207 92.287 5.588 91.66 5.132 C 91.032 4.659 90.243 4.423 89.293 4.423 C 87.731 4.423 86.475 5.001 85.525 6.158 C 84.576 7.315 84.101 8.936 84.101 11.022 C 84.101 11.918 84.205 12.822 84.415 13.734 C 84.616 14.627 84.95 15.484 85.405 16.276 C 85.856 17.042 86.435 17.661 87.144 18.133 C 87.868 18.606 88.746 18.842 89.776 18.842 C 90.742 18.842 91.539 18.647 92.167 18.256 C 92.795 17.865 93.286 17.335 93.64 16.667 C 93.994 15.999 94.235 15.258 94.364 14.443 Z M 69.472 20.675 L 69.472 19.771 L 69.593 19.771 C 69.915 19.771 70.157 19.747 70.318 19.698 C 70.473 19.653 70.614 19.569 70.728 19.453 C 70.938 19.242 71.042 18.859 71.042 18.305 L 71.042 5.914 C 71.042 5.376 70.938 5.001 70.728 4.789 C 70.614 4.674 70.473 4.59 70.318 4.545 C 70.157 4.496 69.915 4.472 69.593 4.472 L 69.472 4.472 L 69.472 3.568 L 72.733 3.568 L 72.733 15.592 L 76.79 11.535 C 77.112 11.225 77.337 10.964 77.466 10.753 C 77.611 10.541 77.683 10.321 77.683 10.093 C 77.683 9.914 77.619 9.751 77.49 9.604 C 77.361 9.441 77.144 9.36 76.838 9.36 L 76.718 9.36 L 76.718 8.455 L 81.427 8.455 L 81.427 9.36 C 81.088 9.36 80.678 9.539 80.195 9.897 C 79.712 10.239 79.221 10.655 78.722 11.144 L 76.452 13.417 L 79.471 18.158 C 79.841 18.745 80.211 19.16 80.581 19.404 C 80.952 19.649 81.314 19.771 81.668 19.771 L 81.789 19.771 L 81.789 20.675 L 76.235 20.675 L 76.235 19.771 L 76.379 19.771 C 76.798 19.771 77.096 19.673 77.273 19.478 C 77.466 19.266 77.563 19.03 77.563 18.769 C 77.563 18.46 77.386 18.028 77.032 17.474 L 75.244 14.639 L 72.733 17.156 L 72.733 18.305 C 72.733 18.859 72.837 19.242 73.047 19.453 C 73.256 19.665 73.594 19.771 74.061 19.771 L 74.182 19.771 L 74.182 20.675 Z M 67.522 15.909 L 68.367 15.909 C 68.305 16.748 68.092 17.568 67.739 18.329 C 67.401 19.095 66.902 19.722 66.242 20.211 C 65.582 20.683 64.737 20.92 63.706 20.92 C 62.628 20.92 61.694 20.651 60.905 20.113 C 60.132 19.576 59.528 18.842 59.093 17.913 C 58.675 16.969 58.466 15.909 58.466 14.737 C 58.466 13.498 58.683 12.39 59.118 11.413 C 59.568 10.419 60.196 9.637 61.001 9.066 C 61.807 8.496 62.756 8.211 63.851 8.211 C 64.737 8.211 65.493 8.407 66.121 8.798 C 66.765 9.173 67.256 9.661 67.594 10.264 C 67.945 10.854 68.129 11.53 68.126 12.219 C 68.126 12.626 68.029 12.977 67.836 13.27 C 67.659 13.563 67.361 13.71 66.942 13.71 C 66.685 13.71 66.451 13.612 66.242 13.417 C 66.049 13.205 65.952 12.944 65.952 12.635 C 65.952 12.439 65.968 12.243 66 12.048 C 66.051 11.832 66.075 11.61 66.073 11.388 C 66.073 10.867 65.904 10.386 65.566 9.946 C 65.228 9.49 64.648 9.262 63.827 9.262 C 63.183 9.262 62.579 9.441 62.016 9.799 C 61.468 10.142 61.018 10.663 60.663 11.364 C 60.325 12.048 60.156 12.912 60.156 13.954 C 60.156 14.964 60.317 15.861 60.639 16.643 C 60.977 17.408 61.436 18.012 62.016 18.451 C 62.612 18.875 63.295 19.087 64.068 19.087 C 65.018 19.087 65.775 18.802 66.339 18.231 C 66.902 17.645 67.296 16.871 67.522 15.909 Z M 51.331 20.92 C 50.236 20.92 49.27 20.635 48.433 20.064 C 47.596 19.494 46.944 18.728 46.477 17.767 C 46.01 16.806 45.776 15.738 45.776 14.565 C 45.776 13.392 46.01 12.325 46.477 11.364 C 46.944 10.403 47.596 9.637 48.433 9.066 C 49.27 8.496 50.236 8.211 51.331 8.211 C 52.442 8.211 53.408 8.496 54.229 9.066 C 55.066 9.637 55.718 10.403 56.185 11.364 C 56.652 12.309 56.885 13.376 56.885 14.565 C 56.885 15.738 56.652 16.806 56.185 17.767 C 55.718 18.728 55.066 19.494 54.229 20.064 C 53.408 20.635 52.442 20.92 51.331 20.92 Z M 51.524 19.869 C 52.329 19.869 52.973 19.657 53.456 19.233 C 53.955 18.793 54.317 18.223 54.543 17.523 C 54.768 16.806 54.881 16.032 54.881 15.201 C 54.881 14.631 54.816 14.011 54.688 13.343 C 54.577 12.666 54.374 12.008 54.084 11.388 C 53.81 10.769 53.432 10.264 52.949 9.873 C 52.466 9.466 51.862 9.262 51.138 9.262 C 50.333 9.262 49.681 9.482 49.181 9.922 C 48.698 10.345 48.344 10.908 48.119 11.608 C 47.893 12.309 47.781 13.083 47.781 13.93 C 47.781 14.5 47.837 15.128 47.95 15.812 C 48.078 16.477 48.28 17.124 48.554 17.743 C 48.844 18.362 49.23 18.875 49.713 19.282 C 50.196 19.673 50.799 19.869 51.524 19.869 Z M 31.44 20.675 L 31.44 19.649 L 31.682 19.649 C 32.004 19.649 32.245 19.624 32.406 19.576 C 32.561 19.53 32.702 19.446 32.817 19.331 C 33.026 19.119 33.131 18.737 33.131 18.183 L 33.131 6.06 C 33.131 5.506 33.026 5.123 32.817 4.912 C 32.702 4.797 32.561 4.713 32.406 4.667 C 32.245 4.618 32.004 4.594 31.682 4.594 L 31.44 4.594 L 31.44 3.568 L 38.565 3.568 C 39.45 3.568 40.183 3.681 40.762 3.909 C 41.358 4.138 41.857 4.455 42.26 4.863 C 42.676 5.266 42.997 5.759 43.201 6.305 C 43.409 6.834 43.515 7.398 43.515 7.967 C 43.515 9.058 43.153 10.011 42.428 10.826 C 41.72 11.641 40.786 12.162 39.627 12.39 C 40.191 12.472 40.658 12.635 41.028 12.879 C 41.399 13.125 41.713 13.45 41.946 13.832 C 42.171 14.207 42.372 14.696 42.549 15.298 C 42.726 15.899 42.895 16.502 43.056 17.107 C 43.217 17.694 43.37 18.166 43.515 18.525 C 43.628 18.769 43.749 18.965 43.878 19.111 C 44.006 19.242 44.127 19.348 44.24 19.429 C 44.513 19.576 44.892 19.649 45.375 19.649 L 45.568 19.649 L 45.568 20.675 L 43.443 20.675 C 42.815 20.675 42.348 20.513 42.042 20.187 C 41.736 19.861 41.503 19.396 41.342 18.793 C 41.213 18.272 41.092 17.669 40.98 16.985 C 40.883 16.284 40.778 15.706 40.666 15.25 C 40.521 14.631 40.279 14.101 39.941 13.661 C 39.603 13.205 39.056 12.977 38.299 12.977 L 34.942 12.977 L 34.942 18.183 C 34.942 18.737 35.047 19.119 35.256 19.331 C 35.369 19.445 35.513 19.527 35.691 19.576 C 35.868 19.624 36.142 19.649 36.512 19.649 L 36.874 19.649 L 36.874 20.675 Z M 34.942 11.877 L 37.14 11.877 C 37.929 11.877 38.549 11.812 38.999 11.682 C 39.466 11.551 39.845 11.38 40.134 11.168 C 40.545 10.853 40.862 10.431 41.052 9.946 C 41.245 9.441 41.342 8.912 41.342 8.358 C 41.342 7.787 41.261 7.258 41.1 6.769 C 40.939 6.264 40.682 5.857 40.327 5.547 C 40.021 5.253 39.611 5.025 39.096 4.863 C 38.597 4.7 37.945 4.618 37.14 4.618 L 34.942 4.618 Z" fill="rgb(255,255,255)"></path></svg>