<svg xmlns="http://www.w3.org/2000/svg" xmlns:xlink="http://www.w3.org/1999/xlink" viewBox="0 0 126 23.291" overflow="visible"><g><path d="M 7.864 0 C 11.281 0 14.494 2.163 14.494 6.34 L 10.633 6.34 C 10.633 4.496 9.261 3.533 7.939 3.533 C 6.501 3.533 5.253 4.495 5.252 5.813 C 5.252 10.719 16.809 7.214 16.809 15.821 L 16.809 15.823 C 16.809 20.204 13.22 23.291 8.379 23.291 C 3.163 23.291 -0.604 19.902 0.08 14.025 L 4.107 14.025 C 3.66 17.221 5.011 19.902 8.384 19.902 C 11.088 19.902 12.702 18.119 12.702 15.979 C 12.702 10.469 1.287 14.633 1.287 5.815 C 1.287 2.545 4.447 0 7.864 0 Z M 115.949 0.08 C 121.373 0.08 124.441 3.391 125.431 7.019 L 120.89 7.019 C 120.406 5.812 119.252 3.863 115.949 3.863 C 112.646 3.863 110.112 6.576 110.112 11.685 C 110.112 16.795 112.592 19.507 115.949 19.507 C 119.306 19.507 121.591 17.482 121.754 14.148 L 115.517 14.148 L 115.517 10.31 L 125.895 10.31 C 126.822 19.266 121.448 23.291 115.95 23.291 C 110.453 23.291 105.908 19.147 105.908 11.685 C 105.908 4.223 110.526 0.081 115.949 0.081 Z M 30.74 4.365 L 25.145 4.365 L 25.145 22.876 L 21.107 22.876 L 21.107 4.366 L 15.544 4.366 L 15.544 0.495 L 30.74 0.495 Z" fill="rgb(255,255,255)"></path><path d="M 47.18 22.881 L 42.825 22.881 L 41.532 18.564 L 34.022 18.564 L 32.728 22.881 L 28.5 22.881 L 35.978 0.501 L 39.765 0.501 Z M 34.844 14.729 L 34.844 14.728 L 34.843 14.728 Z M 40.553 14.728 L 37.747 5.905 L 34.844 14.728 Z M 56.569 0.501 C 56.569 0.501 63.984 0.428 63.984 6.768 C 63.984 9.5 62.607 11.083 61.039 12.001 C 62.771 12.875 63.985 14.861 63.985 16.891 L 63.985 22.881 L 59.915 22.881 L 59.915 17.565 C 59.915 15.688 58.423 14.167 56.569 14.163 L 52.798 14.153 L 52.798 22.88 L 48.789 22.88 L 48.789 0.5 L 56.568 0.5 Z M 56.569 10.316 C 56.569 10.316 59.914 10.316 59.914 7.327 C 59.914 4.338 56.569 4.338 56.569 4.338 L 52.799 4.338 L 52.799 10.316 Z" fill="rgb(255,255,255)"></path><path d="M 85.692 22.88 L 81.654 22.88 L 81.654 0.5 L 85.692 0.5 Z M 99.889 15.175 L 99.889 0.501 L 103.644 0.501 L 103.644 22.881 L 100.047 22.881 L 92.205 7.501 L 92.225 22.879 L 88.449 22.879 L 88.449 0.5 L 92.393 0.5 Z M 70.532 19.012 L 79.24 19.012 L 79.24 22.879 L 66.5 22.879 L 66.5 0.501 L 70.532 0.501 L 70.532 19.011 Z" fill="rgb(255,255,255)"></path></g></svg>