<svg width="84" height="19" xmlns="http://www.w3.org/2000/svg" viewBox="0 0 83.394 18.978" overflow="visible"><path d="M 46.447 0.284 L 51.586 0.284 L 49 18.726 L 43.861 18.726 Z M 39.969 0.284 L 36.501 10.908 L 34.988 0.284 L 31.394 0.284 L 26.854 10.876 L 26.288 0.284 L 21.307 0.284 L 23.041 18.726 L 27.171 18.726 L 32.278 7.062 L 34.075 18.726 L 38.142 18.726 L 44.855 0.284 L 39.97 0.284 Z M 83.111 11.002 L 70.911 11.002 C 70.974 13.398 72.408 14.974 74.521 14.974 C 76.112 14.974 77.373 14.124 78.351 12.5 L 82.469 14.372 C 81.054 17.161 78.072 18.978 74.394 18.978 C 69.382 18.978 66.056 15.605 66.056 10.183 C 66.056 4.224 69.965 0 75.482 0 C 80.337 0 83.394 3.279 83.394 8.386 C 83.394 9.236 83.3 10.088 83.111 11.002 Z M 78.54 7.472 C 78.54 5.328 77.342 3.972 75.419 3.972 C 73.496 3.972 71.793 5.391 71.352 7.472 Z M 5.246 5.841 L 0 11.972 L 9.366 11.972 L 10.42 9.08 L 6.406 9.08 L 8.858 6.244 L 8.866 6.168 L 7.271 3.424 L 14.445 3.424 L 8.884 18.724 L 12.689 18.724 L 19.404 0.285 L 2.055 0.285 L 5.245 5.843 Z M 59.94 3.971 C 61.753 3.971 63.342 4.945 64.728 6.616 L 65.457 1.418 C 64.164 0.544 62.415 0 60.097 0 C 55.495 0 52.91 2.695 52.91 6.116 C 52.91 8.488 54.234 9.938 56.41 10.876 L 57.45 11.349 C 59.388 12.177 59.908 12.586 59.908 13.461 C 59.908 14.336 59.034 14.943 57.702 14.943 C 55.502 14.951 53.722 13.823 52.382 11.901 L 51.64 17.198 C 53.165 18.362 55.121 18.978 57.702 18.978 C 62.076 18.978 64.763 16.456 64.763 12.957 C 64.763 10.577 63.707 9.047 61.043 7.85 L 59.908 7.314 C 58.332 6.612 57.796 6.226 57.796 5.454 C 57.796 4.618 58.529 3.972 59.94 3.972 Z" fill="white"></path></svg>
